<?xml version="1.0" standalone="no"?>
<!DOCTYPE svg PUBLIC "-//W3C//DTD SVG 20010904//EN"
 "http://www.w3.org/TR/2001/REC-SVG-20010904/DTD/svg10.dtd">
<svg version="1.0" xmlns="http://www.w3.org/2000/svg"
 width="800.000000pt" height="800.000000pt" viewBox="0 0 800.000000 800.000000"
 preserveAspectRatio="xMidYMid meet">
<metadata>
Created by potrace 1.14, written by Peter Selinger 2001-2017
</metadata>
<g transform="translate(0.000000,800.000000) scale(0.100000,-0.100000)"
fill="#000000" stroke="none">
<path d="M6470 5473 c-368 -37 -625 -182 -741 -418 -21 -44 -46 -109 -56 -145
-22 -88 -22 -273 0 -360 66 -254 271 -432 627 -545 47 -14 210 -57 365 -95
403 -99 550 -154 650 -242 53 -46 100 -138 116 -223 16 -86 6 -227 -21 -298
-73 -191 -275 -299 -586 -311 -215 -8 -398 25 -553 100 -206 100 -329 283
-376 557 l-6 37 -179 0 -178 0 5 -42 c27 -252 114 -447 270 -609 183 -190 405
-298 703 -344 124 -19 396 -19 523 0 124 19 290 73 387 128 89 50 229 185 278
269 75 127 108 278 99 453 -18 326 -152 527 -439 659 -118 55 -273 103 -607
187 -439 112 -515 139 -610 225 -65 59 -96 111 -117 199 -55 235 63 403 334
477 66 18 105 21 267 22 165 0 200 -3 270 -22 242 -67 378 -210 436 -460 l22
-92 179 0 179 0 -5 33 c-21 126 -29 163 -47 219 -117 363 -418 589 -852 637
-90 10 -257 12 -337 4z"/>
<path d="M200 3996 l0 -1426 658 0 c361 0 695 4 741 10 223 25 424 109 553
229 178 166 245 345 236 630 -4 125 -9 157 -32 226 -39 115 -80 180 -160 260
-77 76 -170 131 -271 160 -33 10 -67 19 -75 22 -8 2 20 19 62 37 250 109 368
289 368 561 0 353 -209 589 -610 688 -81 20 -116 21 -777 24 l-693 4 0 -1425z
m1322 1104 c158 -18 261 -72 328 -172 56 -84 65 -122 65 -278 0 -128 -2 -138
-29 -197 -46 -100 -123 -161 -251 -199 -53 -15 -120 -18 -567 -21 l-508 -4 0
440 0 441 438 0 c240 0 476 -5 524 -10z m161 -1205 c85 -22 154 -61 211 -119
97 -98 139 -214 139 -381 0 -259 -108 -413 -339 -481 -52 -16 -119 -18 -596
-21 l-538 -4 0 510 0 511 533 0 c440 0 543 -3 590 -15z"/>
<path d="M3762 5338 c-17 -46 -247 -670 -512 -1388 -265 -718 -488 -1322 -496
-1343 l-13 -37 186 2 186 3 118 335 c65 184 123 345 128 358 l11 22 624 0 624
0 15 -42 c8 -24 65 -184 126 -357 61 -173 111 -316 111 -317 0 -2 83 -4 185
-4 102 0 185 2 185 3 0 4 -734 2002 -869 2367 -38 102 -93 251 -122 332 l-54
148 -202 0 -201 0 -30 -82z m274 -358 c104 -298 464 -1363 464 -1371 0 -5
-206 -9 -505 -9 -407 0 -505 3 -505 13 0 9 459 1367 495 1466 8 21 12 13 51
-99z"/>
</g>
</svg>
